<svg id="svg" version="1.1" xmlns="http://www.w3.org/2000/svg" xmlns:xlink="http://www.w3.org/1999/xlink" width="400" height="400" viewBox="0, 0, 400,400"><g id="svgg"><path id="path0" d="M211.388 145.212 C 209.645 146.965,208.329 148.400,208.464 148.400 C 208.797 148.400,214.856 142.323,214.689 142.156 C 214.617 142.083,213.131 143.459,211.388 145.212 M142.800 268.225 C 81.530 329.509,30.548 380.374,29.506 381.258 C 26.247 384.022,20.601 385.270,17.319 383.950 C 16.703 383.703,15.840 383.354,15.400 383.175 C 14.014 382.612,12.800 382.337,12.800 382.586 C 12.800 382.833,20.052 390.001,23.539 393.200 C 24.618 394.190,25.422 395.135,25.327 395.300 C 25.231 395.465,25.433 395.600,25.776 395.600 C 26.119 395.600,26.400 395.761,26.400 395.958 C 26.400 396.575,28.692 398.800,29.327 398.800 C 29.661 398.800,30.008 399.025,30.100 399.300 C 30.224 399.672,31.889 399.800,36.600 399.800 C 41.311 399.800,42.976 399.672,43.100 399.300 C 43.192 399.025,43.517 398.800,43.823 398.800 C 44.356 398.800,49.666 393.834,55.721 387.670 C 57.305 386.059,61.210 382.152,64.400 378.989 C 71.553 371.896,71.899 371.550,78.989 364.400 C 82.152 361.210,86.017 357.340,87.578 355.800 C 91.238 352.189,102.189 341.238,105.800 337.578 C 107.340 336.017,111.210 332.152,114.400 328.989 C 121.552 321.897,121.897 321.552,128.989 314.400 C 132.152 311.210,136.017 307.340,137.578 305.800 C 141.238 302.189,152.189 291.238,155.800 287.578 C 157.340 286.017,161.210 282.152,164.400 278.989 C 171.552 271.897,171.897 271.552,178.989 264.400 C 182.152 261.210,186.017 257.340,187.578 255.800 C 191.238 252.189,202.189 241.238,205.800 237.578 C 207.340 236.017,211.210 232.152,214.400 228.989 C 217.590 225.826,220.884 222.554,221.719 221.719 C 222.554 220.884,225.826 217.590,228.989 214.400 C 232.152 211.210,236.017 207.340,237.578 205.800 C 241.238 202.189,252.189 191.238,255.800 187.578 C 265.172 178.078,270.143 173.200,270.450 173.200 C 270.642 173.200,270.800 173.020,270.800 172.800 C 270.800 172.580,270.647 172.400,270.459 172.400 C 270.271 172.400,266.585 168.890,262.266 164.600 C 257.948 160.310,254.366 156.800,254.307 156.800 C 254.248 156.800,204.070 206.941,142.800 268.225 M194.988 161.612 C 193.245 163.365,191.929 164.800,192.064 164.800 C 192.397 164.800,198.456 158.723,198.289 158.556 C 198.217 158.483,196.731 159.859,194.988 161.612 M178.175 178.500 L 177.000 179.800 178.300 178.625 C 179.015 177.979,179.600 177.394,179.600 177.325 C 179.600 177.016,179.270 177.288,178.175 178.500 M161.388 195.212 C 159.645 196.965,158.329 198.400,158.464 198.400 C 158.797 198.400,164.856 192.323,164.689 192.156 C 164.617 192.083,163.131 193.459,161.388 195.212 M144.988 211.612 C 143.245 213.365,141.929 214.800,142.064 214.800 C 142.397 214.800,148.456 208.723,148.289 208.556 C 148.217 208.483,146.731 209.859,144.988 211.612 M128.175 228.500 L 127.000 229.800 128.300 228.625 C 129.512 227.530,129.784 227.200,129.475 227.200 C 129.406 227.200,128.821 227.785,128.175 228.500 M111.388 245.212 C 109.645 246.965,108.329 248.400,108.464 248.400 C 108.797 248.400,114.856 242.323,114.689 242.156 C 114.617 242.083,113.131 243.459,111.388 245.212 M94.988 261.612 C 93.245 263.365,91.929 264.800,92.064 264.800 C 92.397 264.800,98.456 258.723,98.289 258.556 C 98.217 258.483,96.731 259.859,94.988 261.612 M78.175 278.500 L 77.000 279.800 78.300 278.625 C 79.512 277.530,79.784 277.200,79.475 277.200 C 79.406 277.200,78.821 277.785,78.175 278.500 M61.388 295.212 C 59.645 296.965,58.329 298.400,58.464 298.400 C 58.797 298.400,64.856 292.323,64.689 292.156 C 64.617 292.083,63.131 293.459,61.388 295.212 M44.988 311.612 C 43.245 313.365,41.929 314.800,42.064 314.800 C 42.397 314.800,48.456 308.723,48.289 308.556 C 48.217 308.483,46.731 309.859,44.988 311.612 M28.175 328.500 L 27.000 329.800 28.300 328.625 C 29.512 327.530,29.784 327.200,29.475 327.200 C 29.406 327.200,28.821 327.785,28.175 328.500 M11.388 345.212 C 9.645 346.965,8.329 348.400,8.464 348.400 C 8.797 348.400,14.856 342.323,14.689 342.156 C 14.617 342.083,13.131 343.459,11.388 345.212 " stroke="none" fill="#3c4474" fill-rule="evenodd"></path><path id="path1" d="M230.897 0.414 C 230.400 0.613,229.786 1.232,229.533 1.788 C 229.279 2.345,228.920 2.800,228.736 2.800 C 228.551 2.800,228.400 7.210,228.400 12.600 L 228.400 22.400 219.000 22.400 C 213.830 22.400,209.600 22.546,209.600 22.725 C 209.600 22.904,208.970 23.298,208.200 23.600 C 207.430 23.902,206.800 24.386,206.800 24.675 C 206.800 24.964,206.620 25.200,206.400 25.200 C 206.180 25.200,206.000 25.560,206.000 26.000 C 206.000 26.440,205.820 26.800,205.600 26.800 C 205.378 26.800,205.200 27.867,205.200 29.200 C 205.200 30.533,205.378 31.600,205.600 31.600 C 205.820 31.600,206.000 31.878,206.000 32.218 C 206.000 32.892,207.335 34.308,208.717 35.100 C 209.347 35.461,212.202 35.600,218.995 35.600 L 228.400 35.600 228.400 45.400 C 228.400 51.667,228.544 55.200,228.800 55.200 C 229.020 55.200,229.200 55.436,229.200 55.725 C 229.200 58.298,236.555 59.811,239.287 57.800 C 241.440 56.215,241.600 55.333,241.600 45.040 L 241.600 35.600 251.400 35.600 C 257.667 35.600,261.200 35.456,261.200 35.200 C 261.200 34.980,261.483 34.800,261.829 34.800 C 262.637 34.800,263.600 33.837,263.600 33.029 C 263.600 32.683,263.780 32.400,264.000 32.400 C 264.220 32.400,264.400 31.860,264.400 31.200 C 264.400 30.540,264.580 30.000,264.800 30.000 C 265.020 30.000,265.200 29.550,265.200 29.000 C 265.200 28.450,265.020 28.000,264.800 28.000 C 264.580 28.000,264.400 27.544,264.400 26.987 C 264.400 25.860,262.021 23.200,261.013 23.200 C 260.676 23.200,260.400 23.020,260.400 22.800 C 260.400 22.545,257.008 22.400,251.025 22.400 L 241.651 22.400 241.525 12.453 L 241.400 2.506 240.058 1.253 C 238.639 -0.072,233.318 -0.559,230.897 0.414 M367.028 0.290 C 366.015 0.548,365.200 1.387,365.200 2.171 C 365.200 2.517,365.020 2.800,364.800 2.800 C 364.544 2.800,364.400 6.333,364.400 12.600 L 364.400 22.400 355.024 22.400 C 349.204 22.400,345.553 22.552,345.400 22.800 C 345.264 23.020,344.885 23.200,344.558 23.200 C 343.788 23.200,342.000 24.988,342.000 25.758 C 342.000 26.085,341.820 26.464,341.600 26.600 C 341.031 26.952,341.104 30.927,341.700 32.055 C 343.555 35.566,343.679 35.600,354.795 35.600 L 364.400 35.600 364.400 45.120 C 364.400 55.361,364.493 55.909,366.506 57.562 C 369.410 59.948,376.800 58.441,376.800 55.463 C 376.800 55.124,376.980 54.736,377.200 54.600 C 377.448 54.447,377.600 50.796,377.600 44.976 L 377.600 35.600 387.400 35.600 C 392.790 35.600,397.200 35.464,397.200 35.298 C 397.200 35.131,397.719 34.766,398.353 34.485 C 401.418 33.128,400.262 23.200,397.040 23.200 C 396.688 23.200,396.400 23.020,396.400 22.800 C 396.400 22.545,393.000 22.400,387.000 22.400 L 377.600 22.400 377.600 13.000 C 377.600 7.000,377.455 3.600,377.200 3.600 C 376.980 3.600,376.800 3.328,376.800 2.996 C 376.800 0.623,371.490 -0.848,367.028 0.290 M367.755 143.871 C 366.350 144.065,363.600 146.370,363.600 147.354 C 363.600 147.709,363.420 148.000,363.200 148.000 C 362.945 148.000,362.800 151.400,362.800 157.400 L 362.800 166.800 353.400 166.800 C 347.400 166.800,344.000 166.945,344.000 167.200 C 344.000 167.420,343.774 167.600,343.497 167.600 C 341.822 167.600,340.400 170.362,340.400 173.613 C 340.400 175.471,340.567 176.800,340.800 176.800 C 341.020 176.800,341.200 177.083,341.200 177.429 C 341.200 177.774,341.432 178.269,341.715 178.529 C 343.217 179.902,343.998 180.000,353.395 180.000 L 362.800 180.000 362.800 189.400 C 362.800 195.400,362.945 198.800,363.200 198.800 C 363.420 198.800,363.600 199.160,363.600 199.600 C 363.600 200.040,363.759 200.400,363.953 200.400 C 364.148 200.400,364.401 200.760,364.516 201.200 C 364.631 201.640,365.012 202.000,365.363 202.000 C 365.713 202.000,366.000 202.180,366.000 202.400 C 366.000 202.620,366.360 202.800,366.800 202.800 C 367.240 202.800,367.600 202.980,367.600 203.200 C 367.600 203.420,368.590 203.600,369.800 203.600 C 371.010 203.600,372.000 203.420,372.000 203.200 C 372.000 202.980,372.329 202.800,372.730 202.800 C 373.531 202.800,375.200 201.229,375.200 200.474 C 375.200 200.213,375.380 200.000,375.600 200.000 C 375.856 200.000,376.000 196.400,376.000 190.000 L 376.000 180.000 385.800 180.000 C 392.067 180.000,395.600 179.856,395.600 179.600 C 395.600 179.380,395.878 179.200,396.218 179.200 C 397.018 179.200,398.800 177.418,398.800 176.618 C 398.800 176.278,398.980 176.000,399.200 176.000 C 399.422 176.000,399.600 174.941,399.600 173.624 C 399.600 172.317,399.420 171.136,399.200 171.000 C 398.980 170.864,398.800 170.485,398.800 170.158 C 398.800 169.377,397.007 167.600,396.218 167.600 C 395.878 167.600,395.600 167.420,395.600 167.200 C 395.600 166.944,392.067 166.800,385.800 166.800 L 376.000 166.800 376.000 157.000 C 376.000 150.733,375.856 147.200,375.600 147.200 C 375.380 147.200,375.200 146.917,375.200 146.571 C 375.200 144.788,371.318 143.380,367.755 143.871 " stroke="none" fill="#fcdc1c" fill-rule="evenodd"></path><path id="path2" d="M292.014 68.774 C 291.751 69.266,291.173 69.600,290.586 69.600 C 290.044 69.600,289.600 69.736,289.600 69.902 C 289.600 70.069,289.015 70.452,288.300 70.753 C 286.737 71.413,229.200 128.702,229.200 129.599 C 229.200 130.262,254.352 155.600,255.011 155.600 C 256.073 155.600,313.525 97.382,314.617 95.200 C 316.073 92.289,316.161 87.674,314.817 84.600 C 313.128 80.734,301.184 69.600,298.726 69.600 C 298.313 69.600,297.875 69.340,297.753 69.023 C 297.584 68.582,297.069 68.501,295.573 68.678 C 294.314 68.827,293.407 68.738,293.035 68.429 C 292.568 68.042,292.370 68.109,292.014 68.774 " stroke="none" fill="#cbcbdb" fill-rule="evenodd"></path><path id="path3" d="M293.078 67.856 C 292.571 68.362,293.273 68.800,294.591 68.800 C 296.240 68.800,297.270 68.436,296.974 67.958 C 296.723 67.551,293.468 67.466,293.078 67.856 M289.600 68.800 C 289.600 69.020,289.240 69.200,288.800 69.200 C 288.360 69.200,288.000 69.380,288.000 69.600 C 288.000 69.820,287.734 70.000,287.409 70.000 C 286.699 70.000,228.000 128.614,228.000 129.323 C 228.000 129.927,269.777 171.752,270.549 171.919 C 271.220 172.066,330.000 113.398,330.000 112.582 C 330.000 112.262,330.180 112.000,330.400 112.000 C 330.620 112.000,330.800 111.550,330.800 111.000 C 330.800 110.450,330.980 110.000,331.200 110.000 C 331.420 110.000,331.600 109.370,331.600 108.600 C 331.600 107.830,331.780 107.200,332.000 107.200 C 332.220 107.200,332.400 106.401,332.400 105.424 C 332.400 104.447,332.220 103.536,332.000 103.400 C 331.780 103.264,331.600 102.640,331.600 102.014 C 331.600 100.911,330.107 97.537,329.500 97.267 C 329.335 97.193,329.200 96.954,329.200 96.735 C 329.200 96.517,327.593 94.749,325.629 92.807 C 323.664 90.865,322.164 89.169,322.295 89.038 C 322.426 88.907,322.321 88.800,322.062 88.800 C 321.539 88.800,316.800 84.053,316.800 83.530 C 316.800 83.348,316.638 83.200,316.439 83.200 C 316.241 83.200,313.126 80.275,309.517 76.700 C 303.094 70.336,300.530 68.400,298.529 68.400 C 297.365 68.400,297.451 69.331,298.633 69.527 C 301.642 70.026,313.120 80.716,314.817 84.600 C 316.161 87.674,316.073 92.289,314.617 95.200 C 313.522 97.388,256.072 155.600,255.007 155.600 C 254.349 155.600,229.200 130.259,229.200 129.597 C 229.200 128.783,286.239 71.891,288.000 70.949 C 288.770 70.537,289.490 70.083,289.600 69.940 C 289.710 69.798,290.236 69.618,290.769 69.540 C 292.252 69.325,292.305 68.400,290.833 68.400 C 290.155 68.400,289.600 68.580,289.600 68.800 " stroke="none" fill="#a3abc3" fill-rule="evenodd"></path><path id="path4" d="M321.402 121.598 C 321.003 122.039,320.807 122.400,320.967 122.400 C 321.388 122.400,322.528 121.195,322.312 120.979 C 322.211 120.878,321.802 121.156,321.402 121.598 M228.119 128.652 C 227.723 129.230,225.899 131.165,224.065 132.952 C 222.231 134.738,219.981 136.988,219.065 137.951 C 216.135 141.031,204.000 153.097,204.000 152.930 C 204.000 152.841,203.748 153.001,203.440 153.284 C 203.133 153.568,202.928 153.851,202.986 153.912 C 203.044 153.974,199.651 157.433,195.446 161.598 C 191.241 165.763,187.462 169.514,187.049 169.934 C 186.635 170.354,182.787 174.207,178.497 178.497 C 174.207 182.787,170.354 186.635,169.934 187.049 C 169.514 187.462,165.763 191.241,161.598 195.446 C 157.433 199.651,153.974 203.044,153.912 202.986 C 153.851 202.928,153.568 203.133,153.284 203.440 C 153.001 203.748,152.847 204.000,152.942 204.000 C 153.038 204.000,149.670 207.413,145.458 211.585 C 141.246 215.757,137.462 219.514,137.049 219.934 C 136.069 220.929,120.929 236.069,119.934 237.049 C 119.514 237.462,115.763 241.241,111.598 245.446 C 107.433 249.651,103.974 253.044,103.912 252.986 C 103.851 252.928,103.568 253.133,103.284 253.440 C 103.001 253.748,102.847 254.000,102.942 254.000 C 103.038 254.000,99.670 257.413,95.458 261.585 C 91.246 265.757,87.462 269.514,87.049 269.934 C 86.069 270.929,70.929 286.069,69.934 287.049 C 69.514 287.462,65.763 291.241,61.598 295.446 C 57.433 299.651,53.974 303.044,53.912 302.986 C 53.851 302.928,53.568 303.133,53.284 303.440 C 53.001 303.748,52.847 304.000,52.942 304.000 C 53.038 304.000,49.670 307.413,45.458 311.585 C 41.246 315.757,37.462 319.514,37.049 319.934 C 36.069 320.929,20.817 336.181,19.885 337.097 C 19.492 337.484,15.757 341.246,11.585 345.458 C 7.413 349.670,4.000 353.017,4.000 352.896 C 4.000 352.775,3.550 353.199,3.000 353.838 C 2.451 354.477,2.001 355.225,2.000 355.500 C 2.000 355.775,1.820 356.000,1.600 356.000 C 1.380 356.000,1.200 356.255,1.200 356.567 C 1.200 356.878,0.975 357.208,0.700 357.300 C -0.017 357.539,-0.017 369.261,0.700 369.500 C 0.975 369.592,1.200 369.936,1.200 370.265 C 1.200 370.594,1.920 371.554,2.800 372.400 C 3.680 373.246,4.400 374.131,4.400 374.369 C 4.400 374.606,4.584 374.800,4.809 374.800 C 5.293 374.800,9.600 379.171,9.600 379.662 C 9.600 379.848,9.778 380.000,9.997 380.000 C 10.215 380.000,10.890 380.516,11.497 381.146 C 12.103 381.776,13.050 382.417,13.600 382.571 C 14.150 382.725,14.960 382.997,15.400 383.175 C 15.840 383.354,16.703 383.703,17.319 383.950 C 19.094 384.664,23.160 384.492,25.600 383.600 C 26.804 383.160,27.879 382.800,27.988 382.800 C 28.098 382.800,79.066 331.927,141.249 269.748 L 254.310 156.696 262.214 164.548 C 270.129 172.411,270.765 172.892,271.829 171.829 C 272.692 170.965,272.513 170.573,271.623 171.379 C 271.196 171.766,270.658 172.019,270.427 171.941 C 269.783 171.724,228.000 129.869,228.000 129.440 C 228.000 129.233,228.298 128.734,228.662 128.331 C 229.026 127.929,229.214 127.600,229.081 127.600 C 228.947 127.600,228.514 128.073,228.119 128.652 M304.589 138.490 C 303.055 140.079,302.329 140.934,302.977 140.390 C 304.873 138.795,307.929 135.600,307.559 135.600 C 307.460 135.600,306.123 136.900,304.589 138.490 M288.189 154.890 C 286.655 156.479,285.929 157.334,286.577 156.790 C 288.473 155.195,291.529 152.000,291.159 152.000 C 291.060 152.000,289.723 153.300,288.189 154.890 " stroke="none" fill="#5c648c" fill-rule="evenodd"></path></g></svg>
